 <svg version="1.0" xmlns="http://www.w3.org/2000/svg" width="700.000000pt" height="492.000000pt" viewBox="0 0 700.000000 492.000000" preserveAspectRatio="xMidYMid meet">
<metadata>
Created by potrace 1.12, written by Peter Selinger 2001-2015
</metadata>
<g transform="translate(0.000000,492.000000) scale(0.100000,-0.100000)" fill="#000000" stroke="none">
<path d="M4468 4363 l-3 -438 -43 -3 -43 -3 3 -52 3 -52 40 -5 40 -5 0 -485 0
-485 -89 0 -90 0 0 35 -1 35 -187 3 -187 2 -3 -37 -3 -38 -55 0 -55 0 -5 500
-5 500 -137 3 c-129 2 -138 1 -148 -18 -7 -13 -21 -20 -40 -20 -22 0 -29 -5
-32 -22 -3 -22 -7 -23 -143 -28 l-140 -5 -5 -455 -5 -455 -34 0 c-33 0 -35 2
-35 35 l-1 35 -157 3 -157 3 -3 -38 c-3 -35 -6 -38 -33 -38 l-30 0 -3 453 -2
452 -129 0 -130 0 -3 -37 c-3 -36 -5 -38 -35 -35 -37 4 -46 -15 -41 -78 l3
-35 -112 -3 -113 -3 -2 -357 -3 -357 -120 0 -120 0 -5 35 -5 35 -180 0 -180 0
-5 -35 -5 -35 -115 0 -115 0 -3 353 -2 352 -129 0 -130 0 -3 -32 c-2 -27 -8
-34 -30 -36 -19 -2 -28 -10 -30 -25 -3 -21 -10 -22 -103 -27 l-100 -5 -3 -292
-2 -293 -80 0 -80 0 0 -299 c0 -290 -1 -299 -20 -304 -18 -5 -20 -14 -20 -81
l0 -76 238 -2 237 -3 3 -62 3 -63 1354 0 c745 0 1355 -4 1355 -8 0 -5 -71 -56
-158 -114 -87 -59 -185 -127 -219 -152 l-61 -46 -701 0 -702 0 3 -92 3 -93 30
-5 c30 -5 30 -6 30 -70 l0 -65 -115 -5 -115 -5 -3 -512 -2 -513 345 0 345 0 2
422 3 423 103 3 103 3 71 51 71 52 32 -39 33 -38 31 22 c18 13 37 21 44 18 7
-2 80 -98 162 -212 176 -242 262 -361 291 -399 l20 -28 207 158 c114 87 207
160 207 163 0 3 -58 81 -128 173 -230 301 -307 402 -310 408 -1 4 41 37 94 75
l96 68 25 -32 c14 -18 31 -30 37 -28 6 3 137 97 291 211 l279 206 723 0 722 0
3 108 3 107 43 3 c45 3 67 20 649 491 l93 75 0 53 0 53 -562 2 -563 3 -5 45
-5 45 -170 5 -170 5 0 85 0 85 83 3 82 3 0 144 0 144 -82 3 -83 3 0 200 0 200
523 3 522 2 0 495 0 495 -750 0 -750 0 -2 -437z m152 352 l5 -60 580 0 580 0
0 60 0 60 80 0 80 0 0 -360 0 -360 -725 0 -725 0 -3 350 c-1 192 0 356 3 363
3 9 22 12 62 10 l58 -3 5 -60z m1145 10 l0 -50 -560 0 -560 0 -3 39 c-6 72
-51 66 565 64 l558 -3 0 -50z m-1115 -750 l0 -56 -77 3 -78 3 -3 39 c-5 63 -1
66 83 66 l75 0 0 -55z m105 0 l0 -50 -40 0 c-39 0 -40 1 -43 39 -5 58 2 68 45
64 l38 -3 0 -50z m160 0 l0 -50 -65 0 -65 0 -3 39 c-5 63 0 67 70 64 l63 -3 0
-50z m70 0 c0 -43 -3 -50 -20 -50 -16 0 -21 8 -23 39 -4 49 3 68 25 64 14 -3
18 -14 18 -53z m80 0 c0 -47 -2 -50 -25 -50 -22 0 -25 5 -28 39 -4 52 3 68 30
64 20 -3 23 -9 23 -53z m70 0 c0 -43 -3 -50 -20 -50 -16 0 -21 8 -23 39 -4 49
3 68 25 64 14 -3 18 -14 18 -53z m150 0 l0 -50 -60 0 -60 0 -3 39 c-5 62 0 67
65 64 l58 -3 0 -50z m190 0 l0 -50 -80 0 -80 0 -3 39 c-5 64 -2 67 85 64 l78
-3 0 -50z m259 0 l-1 -50 -114 0 -114 0 -3 39 c-6 67 -5 67 120 64 l113 -3 -1
-50z m211 0 l0 -50 -95 0 -95 0 -3 39 c-6 66 -3 67 100 64 l93 -3 0 -50z m0
-110 l0 -30 -517 -3 -518 -2 0 -211 c0 -202 -1 -211 -20 -216 -19 -5 -20 -14
-20 -148 0 -134 1 -143 20 -148 18 -5 20 -14 20 -85 0 -58 -4 -83 -15 -92 -12
-10 -15 -39 -15 -146 l0 -134 183 -2 182 -3 3 -122 3 -123 350 0 c231 0 350
-3 347 -10 -2 -6 -59 -55 -128 -110 l-124 -100 -1123 0 -1123 0 -10 25 -10 25
-450 0 -450 0 0 -25 c0 -24 -3 -25 -54 -25 -49 0 -55 2 -58 23 l-3 22 -700 0
-700 0 -3 -22 c-3 -21 -9 -23 -58 -23 -50 0 -54 2 -51 23 2 22 1 22 -156 25
l-157 3 2 287 3 287 67 3 67 3 3 -108 3 -108 565 0 565 0 5 105 5 105 120 0
120 0 5 -105 5 -105 95 0 95 0 3 84 c2 73 5 84 22 88 19 5 20 19 22 442 l3
436 25 0 25 0 3 -437 2 -438 129 0 c122 0 129 1 134 21 4 16 12 20 34 17 l28
-3 3 -98 3 -98 157 3 157 3 1 95 2 95 33 0 34 0 5 -95 5 -95 117 -3 117 -3 3
83 3 82 30 1 30 0 5 505 c5 497 5 505 25 505 20 0 20 -8 25 -505 l5 -505 137
-3 c130 -2 138 -1 148 18 10 18 19 21 63 18 l52 -3 3 -78 3 -77 187 2 187 3 1
75 1 75 224 5 224 5 0 505 0 505 -165 5 c-149 5 -165 7 -168 23 -10 49 -47 47
775 45 l768 -3 0 -30z m-2180 -215 l0 -165 -120 0 -120 0 -3 155 c-1 85 0 160
3 167 3 11 32 13 122 11 l118 -3 0 -165z m950 60 l0 -95 -115 0 -115 0 -3 84
c-2 46 -1 90 2 98 4 11 30 13 118 11 l113 -3 0 -95z m-1290 -105 l0 -120 -130
0 -130 0 -3 109 c-1 61 0 116 2 123 4 11 34 13 133 11 l128 -3 0 -120z m-770
-5 l0 -115 -107 0 c-60 0 -108 3 -108 8 0 4 0 57 0 117 l0 111 108 -3 107 -3
0 -115z m2060 -390 l0 -375 -115 0 -115 0 -3 365 c-1 201 0 371 3 378 3 9 33
12 117 10 l113 -3 0 -375z m-3480 140 l0 -175 -105 0 -105 0 -3 165 c-1 90 0
170 3 177 3 11 29 13 107 11 l103 -3 0 -175z m1110 5 l0 -170 -100 0 -100 0
-3 160 c-1 87 0 165 3 172 3 11 28 13 102 11 l98 -3 0 -170z m310 -35 l0 -135
-109 0 -109 0 1 135 c1 74 2 136 2 138 0 1 48 1 108 0 l107 -3 0 -135z m770
-5 l0 -140 -130 0 -130 0 -3 129 c-1 72 0 136 2 143 4 11 34 13 133 11 l128
-3 0 -140z m340 0 l0 -140 -120 0 -120 0 -3 129 c-1 72 0 136 2 143 4 11 32
13 123 11 l118 -3 0 -140z m-2770 -195 c0 -318 0 -325 -20 -325 -20 0 -20 8
-23 315 -1 173 0 321 3 328 3 7 13 12 22 10 17 -3 18 -26 18 -328z m-60 155
l0 -120 -90 0 -90 0 -3 109 c-1 61 0 116 2 123 4 11 27 13 93 11 l88 -3 0
-120z m4130 55 l0 -55 -85 0 -85 0 -3 44 c-5 71 -3 72 90 69 l83 -3 0 -55z m0
-140 l0 -55 -85 0 -85 0 -3 44 c-5 71 -3 72 90 69 l83 -3 0 -55z m-2721 -210
l-1 -185 -99 0 -99 0 -3 175 c-1 96 0 180 3 188 3 10 29 12 102 10 l98 -3 -1
-185z m311 0 l0 -185 -108 0 -108 0 0 180 c0 99 0 184 1 188 0 4 48 6 108 5
l107 -3 0 -185z m-1420 -10 l0 -175 -105 0 -105 0 -3 165 c-1 90 0 170 3 177
3 11 29 13 107 11 l103 -3 0 -175z m2190 0 l0 -175 -130 0 -130 0 -3 165 c-1
90 0 170 3 177 3 11 34 13 132 11 l128 -3 0 -175z m340 0 l0 -175 -120 0 -120
0 -3 165 c-1 90 0 170 3 177 3 11 32 13 122 11 l118 -3 0 -175z m-2830 -10 l0
-165 -90 0 -90 0 -3 155 c-1 85 0 160 3 167 3 10 26 13 92 11 l88 -3 0 -165z
m4050 -170 l0 -115 -40 0 -40 0 -3 104 c-1 58 0 111 3 118 3 10 17 13 42 11
l38 -3 0 -115z m120 0 l0 -115 -45 0 -45 0 -3 104 c-1 58 0 111 3 118 3 10 18
13 47 11 l43 -3 0 -115z m140 0 l0 -115 -55 0 -55 0 -3 104 c-1 58 0 111 3
118 3 10 20 13 57 11 l53 -3 0 -115z m-3570 -40 l0 -135 -75 0 -75 0 -3 124
c-1 69 0 131 3 138 3 10 23 13 77 11 l73 -3 0 -135z m170 0 l0 -135 -70 0 -70
0 -3 124 c-1 69 0 131 3 138 3 10 23 13 72 11 l68 -3 0 -135z m1048 128 c-2
-5 -3 -62 -3 -128 l0 -121 -62 3 -63 3 -3 114 c-1 63 0 121 3 128 3 10 22 13
67 11 35 -2 62 -6 61 -10z m152 -118 l0 -125 -65 0 -65 0 -3 114 c-1 63 0 121
3 128 3 10 22 13 67 11 l63 -3 0 -125z m1220 20 l0 -105 -85 0 -85 0 -3 57 -3
57 -82 3 -82 3 0 40 c0 22 1 43 3 48 2 4 79 6 170 5 l167 -3 0 -105z m-2770
-70 l0 -95 -300 0 -300 0 0 75 0 75 177 3 c166 2 178 4 188 23 10 18 20 19
123 17 l112 -3 0 -95z m3890 -95 l0 -190 -55 0 -55 0 -3 180 c-1 98 0 185 3
193 3 9 20 12 57 10 l53 -3 0 -190z m250 0 l0 -190 -112 -3 -113 -3 0 196 0
196 113 -3 112 -3 0 -190z m240 0 l0 -190 -105 0 -105 0 -3 180 c-1 98 0 185
3 193 3 10 29 12 107 10 l103 -3 0 -190z m503 154 c3 -37 2 -38 -192 -194
-191 -153 -195 -156 -238 -153 l-43 3 -3 180 c-1 98 0 185 3 192 3 11 53 13
237 11 l233 -3 3 -36z m-5583 -79 c0 -68 -2 -75 -20 -75 -18 0 -20 8 -23 64
-4 75 2 94 25 89 15 -3 18 -15 18 -78z m70 0 c0 -68 -2 -75 -20 -75 -18 0 -20
8 -23 64 -4 75 2 94 25 89 15 -3 18 -15 18 -78z m1360 0 l0 -75 -40 0 -40 0
-3 64 c-4 85 0 93 45 89 l38 -3 0 -75z m70 0 c0 -68 -2 -75 -20 -75 -18 0 -20
8 -23 64 -4 75 2 94 25 89 15 -3 18 -15 18 -78z m970 10 l0 -65 -50 0 -50 0
-3 54 c-4 77 -1 83 55 79 l48 -3 0 -65z m93 3 l-3 -68 -32 -3 -33 -3 0 70 0
71 35 0 36 0 -3 -67z m710 14 l3 -48 -72 3 -72 3 1 43 c0 23 1 44 1 47 1 3 31
5 69 3 l67 -3 3 -48z m-3413 -567 l0 -55 -55 0 -55 0 -3 44 c-5 67 0 72 60 69
l53 -3 0 -55z m140 0 l0 -55 -59 0 -59 0 1 53 c0 28 1 54 1 57 1 4 27 5 59 3
l57 -3 0 -55z m90 0 l0 -55 -35 0 -34 0 -1 50 c0 64 1 67 38 63 32 -3 32 -4
32 -58z m550 -65 l0 -120 -200 0 -200 0 -3 109 c-1 61 0 116 2 123 4 11 46 13
203 11 l198 -3 0 -120z m180 0 l0 -120 -75 0 -75 0 -3 109 c-1 61 0 116 2 123
4 10 24 13 78 11 l73 -3 0 -120z m333 -3 l3 -123 -158 3 -158 3 -3 109 c-1 61
0 116 2 123 4 11 38 13 158 11 l153 -3 3 -123z m450 0 l3 -122 -213 2 -213 3
-3 109 c-1 61 0 116 2 123 4 11 47 13 213 11 l208 -3 3 -123z m537 3 l0 -120
-195 0 -195 0 -3 109 c-1 61 0 116 2 123 4 11 45 13 198 11 l193 -3 0 -120z
m480 0 l0 -120 -225 0 -225 0 -3 109 c-1 61 0 116 2 123 4 11 50 13 228 11
l223 -3 0 -120z m130 -25 l0 -95 -50 0 -50 0 -3 84 c-2 46 0 91 2 98 4 10 20
13 53 11 l48 -3 0 -95z m210 0 l0 -95 -90 0 -90 0 -3 84 c-2 46 0 91 2 98 4
11 26 13 93 11 l88 -3 0 -95z m665 93 c-1 -9 -507 -377 -525 -381 -6 -2 -29
18 -50 43 -21 27 -43 44 -51 41 -36 -14 -674 -473 -674 -485 0 -3 76 -109 168
-236 92 -126 196 -270 231 -318 l64 -89 -29 -23 -29 -24 -25 27 c-14 16 -47
59 -75 98 -166 232 -338 470 -345 477 -4 5 -42 -14 -85 -43 -63 -42 -79 -49
-91 -39 -12 10 -21 8 -45 -10 -35 -26 -54 -22 -70 13 -10 22 -8 28 17 50 l29
25 -271 1 c-233 0 -273 -2 -278 -15 -3 -8 -13 -15 -23 -15 -10 0 -45 -15 -78
-33 -56 -30 -60 -34 -60 -67 l0 -35 125 -5 125 -5 0 -30 0 -30 -127 -3 -128
-3 -2 -382 -3 -382 -40 0 -40 0 -5 505 -5 504 -25 6 c-23 6 -25 10 -25 70 l0
65 538 3 537 2 158 115 c86 64 250 179 365 257 l207 140 0 103 c0 56 3 105 7
108 9 10 633 9 633 0z m468 -95 l3 -98 -347 0 c-191 0 -345 2 -343 4 2 2 63
47 134 100 l130 95 210 -2 210 -2 3 -97z m270 0 l3 -98 -71 0 -70 0 0 93 c0
52 3 97 7 101 4 4 34 6 68 4 l60 -3 3 -97z m167 0 l1 -98 -73 0 -73 0 0 93 c0
52 3 97 7 101 4 4 37 6 73 4 l65 -3 0 -97z m100 2 l0 -95 -40 0 -40 0 -3 84
c-4 108 -1 113 45 109 l38 -3 0 -95z m160 0 l0 -95 -65 0 -65 0 -3 84 c-2 46
0 91 2 98 4 10 22 13 68 11 l63 -3 0 -95z m-1724 -314 c-6 -8 -70 -57 -141
-110 l-129 -95 -36 42 c-20 23 -34 47 -33 54 2 7 64 55 138 107 l135 95 39
-39 c33 -32 37 -41 27 -54z m-349 -141 c1 -5 -41 -41 -93 -78 -52 -38 -95 -73
-97 -77 -2 -5 15 -33 37 -63 23 -30 41 -58 41 -64 0 -12 -126 -103 -143 -103
-15 1 -102 123 -102 144 0 19 323 258 343 254 7 -2 14 -7 14 -13z m-1317 -75
l0 -75 -145 0 -145 0 -3 64 c-2 35 -1 70 2 78 5 11 34 13 148 11 l143 -3 0
-75z m160 0 l0 -75 -65 0 -65 0 -3 64 c-4 91 -3 92 70 89 l63 -3 0 -75z m250
0 l0 -75 -110 0 -110 0 -3 64 c-2 35 -1 70 2 78 4 11 29 13 113 11 l108 -3 0
-75z m238 0 l-2 -75 -103 0 -103 0 -3 64 c-4 95 -8 92 110 89 l103 -3 -2 -75z
m407 73 c0 -5 -46 -41 -103 -81 l-102 -72 -90 2 -90 3 -3 64 c-2 35 -1 70 2
77 4 11 45 14 196 14 104 0 190 -3 190 -7z m190 -322 c5 -11 10 -22 10 -25 0
-3 -32 -27 -71 -53 -56 -37 -74 -45 -87 -36 -28 17 -20 32 48 83 73 55 85 58
100 31z m-1435 -116 l0 -100 -140 0 -140 0 -3 89 c-2 49 0 96 2 103 4 11 35
13 143 11 l138 -3 0 -100z m754 77 c-13 -10 -54 -40 -91 -65 l-66 -47 -229 2
c-220 3 -228 4 -228 23 0 25 87 74 131 75 19 0 34 6 38 15 5 13 40 15 237 15
226 0 231 0 208 -18z m354 -35 c21 -30 37 -58 37 -63 0 -9 -118 -89 -132 -89
-4 0 -25 26 -47 57 l-40 58 32 23 c74 55 93 66 103 67 6 0 27 -24 47 -53z
m367 -27 c-92 -71 -130 -92 -145 -80 -27 22 -16 39 57 90 l72 51 20 -21 21
-21 -25 -19z m84 -62 c25 -35 46 -67 46 -73 -1 -16 -129 -107 -146 -103 -9 2
-36 31 -60 65 l-44 62 72 55 c40 30 76 55 79 55 4 1 27 -27 53 -61z m-341 -63
c26 -36 45 -70 42 -76 -9 -14 -113 -89 -124 -89 -5 0 -32 31 -60 70 l-51 70
61 45 c34 25 67 45 73 45 7 0 34 -29 59 -65z m-1218 -100 l0 -80 -140 0 -140
0 -3 69 c-2 38 -1 75 2 83 5 11 34 13 143 11 l138 -3 0 -80z m370 -5 l0 -75
-115 0 -115 0 -3 64 c-2 35 -1 70 2 78 4 11 29 13 118 11 l113 -3 0 -75z
m1319 -5 c31 -41 56 -78 56 -82 0 -5 -34 -35 -75 -66 l-75 -58 -60 81 c-33 45
-60 85 -60 90 0 10 132 109 146 110 6 0 37 -34 68 -75z m-375 -24 c17 -21 31
-41 31 -44 0 -9 -117 -97 -128 -97 -15 0 -64 69 -60 85 3 13 105 94 120 95 3
0 20 -18 37 -39z m-1314 -88 c0 -16 -13 -18 -134 -21 -132 -3 -159 3 -149 30
4 10 37 13 144 11 126 -2 139 -4 139 -20z m370 -75 l0 -93 -115 0 -115 0 -3
84 c-2 46 -1 89 1 95 3 7 44 10 118 9 l114 -2 0 -93z m1024 55 l24 -37 -29
-23 c-16 -13 -46 -35 -67 -50 l-38 -27 -24 30 c-13 16 -24 36 -24 44 0 15 105
99 124 100 6 0 21 -17 34 -37z m-1394 -78 l0 -50 -140 0 -140 0 -3 39 c-6 68
-8 67 145 64 l138 -3 0 -50z m1468 -24 c15 -22 27 -41 27 -44 0 -6 -106 -86
-123 -93 -15 -5 -71 68 -66 85 5 14 110 91 123 91 6 0 23 -18 39 -39z m-1468
-91 l0 -45 -140 0 -140 0 -3 33 c-6 63 -6 63 145 60 l138 -3 0 -45z m370 -45
l0 -60 -115 0 -115 0 -3 49 c-5 78 -7 77 120 74 l113 -3 0 -60z m-370 -90 l0
-60 -140 0 -140 0 -3 49 c-5 79 -10 77 145 74 l138 -3 0 -60z m370 -105 l0
-105 -115 0 -115 0 -3 94 c-1 52 0 101 2 108 4 11 31 13 118 11 l113 -3 0
-105z m-370 -45 l0 -60 -140 0 -140 0 -3 49 c-5 79 -10 77 145 74 l138 -3 0
-60z"></path>
</g>
</svg>